<svg width="200" height="200" viewBox="0 0 200 200" xmlns="http://www.w3.org/2000/svg" role="img" aria-labelledby="title desc">
  <title id="title">TatamiTech Logo</title>
  <desc id="desc">Geometric monogram evoking tatami mats and layered protection.</desc>
  <defs>
    <linearGradient id="g1" x1="0%" y1="0%" x2="100%" y2="100%">
      <stop stop-color="#12d8b5" offset="0%"/>
      <stop stop-color="#3b82f6" offset="100%"/>
    </linearGradient>
    <linearGradient id="g2" x1="0%" y1="100%" x2="100%" y2="0%">
      <stop stop-color="#0ea5e9" offset="0%"/>
      <stop stop-color="#16a34a" offset="100%"/>
    </linearGradient>
  </defs>
  <rect x="8" y="8" width="184" height="184" rx="24" fill="#0d1321" stroke="#1f2a40" stroke-width="4"/>
  <rect x="32" y="40" width="136" height="120" rx="18" fill="#0f172a" stroke="#23304a" stroke-width="2"/>
  <rect x="48" y="56" width="24" height="96" rx="8" fill="url(#g1)"/>
  <rect x="88" y="56" width="24" height="96" rx="8" fill="url(#g2)"/>
  <rect x="128" y="56" width="24" height="96" rx="8" fill="url(#g1)"/>
  <rect x="48" y="92" width="104" height="16" rx="8" fill="#0d1321" opacity="0.85"/>
  <rect x="48" y="120" width="104" height="16" rx="8" fill="#0d1321" opacity="0.75"/>
  <path d="M60 140h80c10 0 18-8 18-18V74" fill="none" stroke="#2dd4bf" stroke-width="6" stroke-linecap="round"/>
  <circle cx="158" cy="70" r="10" fill="#22c55e"/>
  <circle cx="158" cy="70" r="4" fill="#0f172a"/>
</svg>
